<svg width="46" height="46" viewBox="0 0 46 46" fill="none" xmlns="http://www.w3.org/2000/svg">
<path d="M14.4096 38.3204C14.2264 38.1373 13.9298 38.1373 13.7467 38.3204L12.4677 39.5994C12.2846 39.7825 12.2846 40.0791 12.4677 40.2623C12.6509 40.4454 12.9475 40.4454 13.1306 40.2623L14.4096 38.9833C14.5926 38.8002 14.5926 38.5036 14.4096 38.3204Z" fill="#252525" stroke="#252525" stroke-width="0.9"/>
<path d="M14.6168 45.3627L21.269 38.7104C21.4521 38.5273 21.4521 38.2307 21.269 38.0475C21.0859 37.8644 20.7893 37.8644 20.6061 38.0475L13.9539 44.6998C13.7707 44.8829 13.7707 45.1795 13.9539 45.3627C14.137 45.5458 14.4336 45.5458 14.6168 45.3627Z" fill="#252525" stroke="#252525" stroke-width="0.9"/>
<path d="M31.1516 0.5C23.2183 0.5 16.7643 6.95397 16.7643 14.8873C16.7643 17.2693 17.3496 19.5159 18.3788 21.4965C18.3881 21.5163 18.3961 21.5353 18.4082 21.5538C20.8164 26.1384 25.6233 29.2743 31.1516 29.2743C39.0847 29.2743 45.5386 22.8203 45.5386 14.8873C45.5385 6.95406 39.0846 0.5 31.1516 0.5ZM44.57 15.7552C43.2962 13.374 41.3693 11.3328 38.9138 9.77526C39.4498 8.37057 40.6218 7.46949 42.0187 6.97606C43.6406 9.19792 44.6011 11.932 44.6011 14.8873C44.6011 15.1792 44.5884 15.4679 44.57 15.7552ZM41.4078 6.20062C39.9465 6.78607 38.7133 7.80692 38.097 9.28047C37.47 8.92943 36.8213 8.61111 36.16 8.32821C36.1155 6.04542 35.8237 3.95108 35.2844 2.08999C37.6933 2.86994 39.8056 4.31168 41.4078 6.20062ZM34.2082 1.79213C34.8005 3.60491 35.1374 5.67167 35.2125 7.9468C34.4806 7.67345 33.7285 7.44417 32.9666 7.25788C32.9699 5.5171 31.7898 4.25219 30.2104 3.47225C29.0729 2.90986 27.9037 2.63642 26.779 2.17111C28.1509 1.69804 29.6209 1.43749 31.1516 1.43749C32.2031 1.43749 33.2254 1.56276 34.2082 1.79213ZM25.5762 2.65238C27.9677 3.87159 31.8025 4.20289 32.0165 7.04293C27.7452 6.15465 23.2535 6.49587 19.6263 7.96239C21.0234 5.64598 23.0997 3.78543 25.5762 2.65238ZM18.9199 9.30472C22.5652 7.49455 27.3926 7.01057 31.9569 7.98862C31.2092 11.9921 23.0834 15.2764 18.894 20.4125C18.1306 18.7256 17.7018 16.8561 17.7018 14.8873C17.7018 12.8961 18.14 11.0065 18.9199 9.30472ZM19.3563 21.3429C23.4781 16.0018 31.9661 12.804 32.8699 8.19951C33.675 8.40202 34.4651 8.65662 35.2307 8.9599C35.0077 10.7161 35.4629 20.3698 28.7223 28.1127C24.6844 27.3728 21.2708 24.8269 19.3563 21.3429ZM29.8172 28.2703C30.6501 27.2652 31.409 26.1968 32.0705 25.0778C36.3813 17.8012 36.0743 10.0785 36.1681 9.36726C36.7276 9.62097 37.2749 9.89684 37.8043 10.2003C36.6078 15.3731 41.2684 18.1051 38.5935 26.0834C36.4608 27.5057 33.9017 28.3369 31.1516 28.3369C30.7012 28.3369 30.2562 28.3137 29.8172 28.2703ZM39.8464 25.1363C41.723 17.8094 37.8893 15.2142 38.6559 10.7255C41.3091 12.4653 43.2268 14.7275 44.3498 17.4689C43.7546 20.517 42.1268 23.1987 39.8464 25.1363Z" fill="#252525" stroke="#252525" stroke-width="0.9"/>
<path d="M4.40328 41.6378C4.58642 41.821 4.88302 41.821 5.06615 41.6378L19.1738 27.5302C19.3569 27.3471 19.3569 27.0505 19.1738 26.8674C18.9906 26.6842 18.694 26.6842 18.5109 26.8674L4.40328 40.975C4.22015 41.1581 4.22015 41.4547 4.40328 41.6378Z" fill="#252525" stroke="#252525" stroke-width="0.9"/>
<path d="M22.532 29.5353L15.7862 36.2809C15.603 36.464 15.603 36.7606 15.7862 36.9438C15.9693 37.1269 16.2659 37.1269 16.449 36.9438L23.1948 30.1982C23.378 30.015 23.378 29.7184 23.1948 29.5353C23.0117 29.3521 22.7151 29.3521 22.532 29.5353Z" fill="#252525" stroke="#252525" stroke-width="0.9"/>
<path d="M22.4517 36.8643C22.6349 37.0474 22.9315 37.0474 23.1146 36.8643L27.9779 32.001C28.161 31.8179 28.161 31.5213 27.9779 31.3381C27.7947 31.155 27.4981 31.155 27.315 31.3381L22.4517 36.2014C22.2687 36.3845 22.2687 36.6811 22.4517 36.8643Z" fill="#252525" stroke="#252525" stroke-width="0.9"/>
<path d="M9.09743 30.2548C9.28057 30.438 9.57717 30.438 9.76031 30.2548L16.5059 23.5092C16.6891 23.3261 16.6891 23.0295 16.5059 22.8463C16.3228 22.6632 16.0262 22.6632 15.8431 22.8463L9.09743 29.592C8.9143 29.7751 8.9143 30.0718 9.09743 30.2548Z" fill="#252525" stroke="#252525" stroke-width="0.9"/>
<path d="M9.83916 23.5887L14.7024 18.7256C14.8856 18.5425 14.8856 18.2459 14.7024 18.0627C14.5193 17.8796 14.2227 17.8796 14.0396 18.0627L9.17629 22.9258C8.99316 23.109 8.99316 23.4056 9.17629 23.5887C9.35943 23.7717 9.65603 23.7718 9.83916 23.5887Z" fill="#252525" stroke="#252525" stroke-width="0.9"/>
<path d="M6.4414 33.5734L7.72037 32.2944C7.9035 32.1113 7.9035 31.8147 7.72037 31.6316C7.53723 31.4484 7.24063 31.4484 7.0575 31.6316L5.77853 32.9105C5.59539 33.0937 5.59539 33.3903 5.77853 33.5734C5.96166 33.7565 6.25826 33.7566 6.4414 33.5734Z" fill="#252525" stroke="#252525" stroke-width="0.9"/>
<path d="M1.34115 32.0871L7.99313 25.4351C8.17626 25.252 8.17626 24.9554 7.99313 24.7722C7.80999 24.5891 7.51339 24.5891 7.33026 24.7722L0.678367 31.4242C0.495232 31.6073 0.495232 31.9039 0.678367 32.0871C0.861412 32.2701 1.1581 32.2701 1.34115 32.0871Z" fill="#252525" stroke="#252525" stroke-width="0.9"/>
</svg>
