<svg width="20" height="20" viewBox="0 0 20 20" fill="none" xmlns="http://www.w3.org/2000/svg">
<g id="vuesax/bold/logout">
<g id="logout">
<path id="Vector" d="M14 1.66667H11.8333C9.16667 1.66667 7.5 3.33334 7.5 6V9.375H12.7083C13.05 9.375 13.3333 9.65834 13.3333 10C13.3333 10.3417 13.05 10.625 12.7083 10.625H7.5V14C7.5 16.6667 9.16667 18.3333 11.8333 18.3333H13.9917C16.6583 18.3333 18.325 16.6667 18.325 14V6C18.3333 3.33334 16.6667 1.66667 14 1.66667Z" fill="white"/>
<path id="Vector_2" d="M3.8002 9.37502L5.5252 7.65002C5.6502 7.52502 5.70853 7.36668 5.70853 7.20835C5.70853 7.05002 5.6502 6.88335 5.5252 6.76668C5.28353 6.52502 4.88353 6.52502 4.64186 6.76668L1.8502 9.55835C1.60853 9.80002 1.60853 10.2 1.8502 10.4417L4.64186 13.2334C4.88353 13.475 5.28353 13.475 5.5252 13.2334C5.76686 12.9917 5.76686 12.5917 5.5252 12.35L3.8002 10.625H7.5002V9.37502H3.8002Z" fill="white"/>
</g>
</g>
</svg>
