<svg width="191" height="76" viewBox="0 0 191 76" fill="none" xmlns="http://www.w3.org/2000/svg">
<g clip-path="url(#clip0_0_505)">
<path d="M0 0C0.981627 1.1734 1.96325 2.34679 2.7664 3.52019C10.7087 15.1639 18.6509 26.8076 26.5039 38.4513C21.9528 45.4917 17.4908 52.6223 13.0289 59.753C17.4016 59.753 21.7743 59.6627 26.0577 59.753C28.8242 55.1496 31.769 50.7268 34.357 45.943C36.4095 51.0879 39.5328 55.6912 41.4068 60.8361C38.7297 57.677 36.6772 54.0665 34.357 50.6366C32.5722 55.0594 30.1627 59.1211 27.8425 63.1829C21.1496 62.7316 14.3675 62.9121 7.5853 63.0024H7.22835C12.7612 54.7886 18.294 46.6651 23.8268 38.4513C15.9738 25.6342 7.67454 12.9976 0 0Z" fill="#55BFA9"/>
<path d="M39.979 12.9976C46.9396 12.9074 53.811 13.0879 60.7716 13.0879C55.1496 21.2114 49.6168 29.4252 44.1732 37.639C47.1181 42.152 49.8845 46.6651 52.8293 51.2684L52.9186 51.3587C57.916 59.6627 63.4488 67.6057 68.0892 76.0903C65.769 73.3824 63.895 70.4038 61.9317 67.4252C55.1496 57.4964 48.3674 47.4774 41.6745 37.5487C46.1364 30.4181 50.6876 23.3777 55.1496 16.247C50.7769 16.247 46.4934 16.3373 42.1207 16.247C39.4435 20.8504 36.4094 25.2732 34 29.9667C31.769 24.9121 28.6456 20.3088 26.7716 15.0736C29.4488 18.2328 31.5013 21.753 33.7322 25.1829C35.4278 21.0309 37.8372 17.0594 39.979 12.9976Z" fill="#55BFA9"/>
</g>
<path d="M74.884 50L83.656 26.2H87.6L96.304 50H92.496L90.456 44.186H80.732L78.692 50H74.884ZM81.752 41.33H89.436L85.594 30.484L81.752 41.33ZM104.998 50C103.344 50 102.029 49.6033 101.054 48.81C100.08 47.994 99.5924 46.5547 99.5924 44.492V36.162H96.7024V33.136H99.5924L100.034 28.852H103.196V33.136H107.956V36.162H103.196V44.492C103.196 45.4213 103.389 46.0673 103.774 46.43C104.182 46.77 104.874 46.94 105.848 46.94H107.786V50H104.998ZM111.673 50V25.52H115.277V35.856C115.843 34.8813 116.625 34.122 117.623 33.578C118.643 33.0113 119.765 32.728 120.989 32.728C123.006 32.728 124.593 33.3627 125.749 34.632C126.905 35.9013 127.483 37.794 127.483 40.31V50H123.913V40.684C123.913 37.42 122.609 35.788 120.003 35.788C118.643 35.788 117.509 36.264 116.603 37.216C115.719 38.168 115.277 39.528 115.277 41.296V50H111.673ZM131.727 50V25.52H135.331V50H131.727ZM147.783 50.408C146.129 50.408 144.655 50.0453 143.363 49.32C142.094 48.572 141.097 47.5407 140.371 46.226C139.646 44.9113 139.283 43.3813 139.283 41.636C139.283 39.868 139.635 38.3153 140.337 36.978C141.063 35.6407 142.06 34.598 143.329 33.85C144.621 33.102 146.117 32.728 147.817 32.728C149.472 32.728 150.911 33.102 152.135 33.85C153.359 34.5753 154.311 35.55 154.991 36.774C155.671 37.998 156.011 39.3467 156.011 40.82C156.011 41.0467 156 41.296 155.977 41.568C155.977 41.8173 155.966 42.1007 155.943 42.418H142.819C142.933 44.05 143.465 45.2967 144.417 46.158C145.392 46.9967 146.514 47.416 147.783 47.416C148.803 47.416 149.653 47.1893 150.333 46.736C151.036 46.26 151.557 45.6253 151.897 44.832H155.501C155.048 46.4187 154.141 47.7447 152.781 48.81C151.444 49.8753 149.778 50.408 147.783 50.408ZM147.783 35.686C146.582 35.686 145.517 36.0487 144.587 36.774C143.658 37.4767 143.091 38.542 142.887 39.97H152.407C152.339 38.6553 151.875 37.6127 151.013 36.842C150.152 36.0713 149.075 35.686 147.783 35.686ZM166.391 50C164.736 50 163.422 49.6033 162.447 48.81C161.472 47.994 160.985 46.5547 160.985 44.492V36.162H158.095V33.136H160.985L161.427 28.852H164.589V33.136H169.349V36.162H164.589V44.492C164.589 45.4213 164.782 46.0673 165.167 46.43C165.575 46.77 166.266 46.94 167.241 46.94H169.179V50H166.391ZM180.521 50.408C178.867 50.408 177.393 50.0453 176.101 49.32C174.832 48.572 173.835 47.5407 173.109 46.226C172.384 44.9113 172.021 43.3813 172.021 41.636C172.021 39.868 172.373 38.3153 173.075 36.978C173.801 35.6407 174.798 34.598 176.067 33.85C177.359 33.102 178.855 32.728 180.555 32.728C182.21 32.728 183.649 33.102 184.873 33.85C186.097 34.5753 187.049 35.55 187.729 36.774C188.409 37.998 188.749 39.3467 188.749 40.82C188.749 41.0467 188.738 41.296 188.715 41.568C188.715 41.8173 188.704 42.1007 188.681 42.418H175.557C175.671 44.05 176.203 45.2967 177.155 46.158C178.13 46.9967 179.252 47.416 180.521 47.416C181.541 47.416 182.391 47.1893 183.071 46.736C183.774 46.26 184.295 45.6253 184.635 44.832H188.239C187.786 46.4187 186.879 47.7447 185.519 48.81C184.182 49.8753 182.516 50.408 180.521 50.408ZM180.521 35.686C179.32 35.686 178.255 36.0487 177.325 36.774C176.396 37.4767 175.829 38.542 175.625 39.97H185.145C185.077 38.6553 184.613 37.6127 183.751 36.842C182.89 36.0713 181.813 35.686 180.521 35.686Z" fill="#252525"/>
<defs>
<clipPath id="clip0_0_505">
<rect width="68" height="76" fill="white"/>
</clipPath>
</defs>
</svg>
