<svg width="143" height="235" viewBox="0 0 143 235" fill="none" xmlns="http://www.w3.org/2000/svg">
<g clip-path="url(#clip0_39_890)">
<path d="M84.8643 37.017C84.929 39.5321 84.8643 42.0472 84.3464 44.5623C83.1812 42.1117 83.5696 39.3387 84.8643 37.017Z" fill="white"/>
<path d="M108.427 33.7281C108.427 33.7926 108.362 33.7926 108.362 33.8571C108.362 39.5966 103.054 42.4987 99.0407 45.6586C96.1925 47.8513 93.9268 50.6243 91.5317 53.2684C90.7549 54.1068 89.9134 55.0096 89.0072 55.7835C87.7125 56.9443 87.9714 56.5574 87.5183 55.0741C87.1946 54.0423 86.871 53.075 86.4826 52.1076C85.8353 50.6243 85.1232 49.1411 84.0875 47.9158C82.1455 45.5297 79.9446 44.0464 80.7214 40.4995C81.1745 38.2423 82.6634 36.5011 84.0228 34.6954C84.2817 34.5664 84.5406 34.4375 84.7995 34.373C84.8643 34.9534 84.8643 35.5983 84.929 36.1787C83.3107 38.0489 82.7281 40.435 83.1812 42.8856C83.8286 46.6905 87.4536 48.7541 88.554 52.4301C88.6188 52.7525 89.0072 52.7525 89.2014 52.6235C93.4737 49.2056 97.6166 45.6586 101.695 42.0472C104.09 39.9191 107.909 37.404 107.326 33.7281C107.391 33.4701 107.391 33.2122 107.391 32.9542C107.65 33.2122 108.039 33.4701 108.427 33.7281Z" fill="#252525"/>
<path d="M121.438 92.865C121.373 92.865 121.373 92.865 121.309 92.9295C118.525 96.2184 117.166 100.539 115.871 104.602C115.094 107.053 114.771 110.148 112.958 112.083C111.664 113.502 109.786 114.276 107.974 114.856C107.844 114.92 107.65 114.92 107.521 114.985C107.262 115.049 106.938 115.178 106.679 115.243C102.342 115.63 98.0697 114.856 93.8621 113.566C91.6612 112.921 89.2014 112.276 87.1299 111.18C85.2527 110.213 84.0228 108.665 82.5987 107.182C79.8799 104.28 76.4491 102.28 73.3419 99.7654C71.3352 98.1531 69.5874 96.2829 69.3932 93.5744C69.2638 91.7687 69.7169 90.0274 70.17 88.2862C70.17 88.2217 70.17 88.1572 70.2347 88.1572C70.2347 88.1572 70.2347 88.1572 70.2995 88.1572C71.5294 90.6723 73.6008 92.8005 75.6075 94.6707C75.8665 94.9286 76.2549 94.5417 75.9959 94.2837C73.6008 91.6397 70.9468 89.0601 70.1053 85.4487C69.199 81.6438 71.0115 77.9679 72.9535 74.7434C73.083 74.8724 73.2772 75.0659 73.4714 75.1948C73.8598 75.4528 74.3776 75.0014 73.9892 74.6789C73.7303 74.4855 73.5361 74.292 73.3419 74.034C73.3419 73.9695 73.2772 73.905 73.2124 73.905C70.4937 70.7451 72.6298 66.4243 74.8308 63.4577C74.9602 63.3288 74.7013 63.0708 74.5718 63.2643C73.2772 64.7475 72.0473 66.6822 71.5294 68.6169C70.4937 65.3279 68.228 62.6194 67.7749 59.1369C67.2571 54.7516 69.2638 50.5598 71.2057 46.7549C72.2415 44.8202 73.2124 43.2725 75.1544 42.1117C76.2549 41.4668 77.2906 40.9509 78.1968 40.048C79.8799 38.5003 81.1745 36.5656 82.987 35.2758C80.8509 37.7909 79.1031 41.0799 80.3977 44.2398C81.2393 46.3035 83.3755 47.5933 84.5406 49.4635C86.0942 51.8496 86.871 54.7516 87.6478 57.4602C87.7125 57.6537 88.0362 57.7827 88.1656 57.5892C89.4603 56.2349 90.6902 54.8806 91.9849 53.5263C95.1568 50.1729 98.3934 46.9484 102.213 44.1109C105.643 41.5958 109.01 38.5003 109.01 33.9215C110.11 34.6309 111.21 35.2113 112.376 35.6627C114.9 36.6301 117.166 37.7909 119.431 39.2097C118.46 38.9517 117.489 38.8872 116.454 39.0807C108.492 40.5639 109.204 50.6243 111.016 56.3639C111.664 58.492 112.893 59.9108 114.188 61.652C115.612 63.5867 116.389 65.7794 117.101 68.0365C118.137 71.5189 119.043 75.3238 121.891 77.7744C120.338 78.1614 118.914 79.1287 117.295 79.2577C115.353 79.4511 113.411 78.9352 111.534 78.6773C108.168 78.0969 104.802 77.5165 101.436 77.1295C101.242 75.7752 99.3644 75.3238 98.4581 76.2912V76.3556C96.1925 75.9687 94.38 74.7434 92.3733 73.7761C91.4023 73.3246 90.496 73.0022 89.525 73.3891C88.4246 72.0348 86.3531 72.3573 84.7996 72.2928C83.6991 72.2928 82.1455 72.0993 81.6277 73.2601C80.5919 72.8732 79.362 72.5508 78.5852 73.5181C78.0674 74.2275 78.391 75.1948 79.1031 75.5818C78.7147 76.2912 78.391 77.0005 78.0674 77.7099C77.8084 78.3548 77.2906 79.3222 77.3553 80.0315C77.4201 80.9344 78.4558 80.9989 79.2326 80.8054C79.362 80.8054 79.362 80.612 79.2973 80.5475C79.9446 79.7091 80.5919 78.8063 81.2393 77.9034C82.0808 76.7426 83.0518 75.3238 84.6054 75.3883C82.9223 76.4201 81.6924 78.0969 81.304 80.096C81.1098 81.2569 81.6277 83.0626 82.987 82.6111H83.0518C83.0518 82.6111 83.0518 82.6111 83.1165 82.5466C83.1812 82.5466 83.246 82.4822 83.3107 82.4822C83.3754 82.4822 83.3754 82.4177 83.3754 82.3532C84.0875 81.5793 84.2817 80.612 84.929 79.7736C85.7058 78.7418 86.871 78.5483 88.0362 78.3548C86.3531 79.3222 85.0585 80.9344 84.6054 82.8691C84.0228 85.1262 85.5116 85.9001 87.2594 84.8038C86.7415 85.6421 87.3241 86.674 88.2951 86.9319C90.4313 87.4479 91.7907 84.8683 93.7974 84.6748H93.8621C95.8041 86.9319 98.6523 86.9964 101.436 87.1254C105.838 87.3189 109.786 89.1246 113.864 90.4789C116.26 91.4462 118.849 92.2201 121.438 92.865ZM115.289 71.261C115.483 71.4544 115.871 71.1965 115.677 70.9385C109.01 61.7165 106.679 50.4308 110.757 39.5321C110.822 39.4676 110.628 39.4031 110.628 39.4676C106.291 49.7859 107.715 62.8128 115.289 71.261ZM106.679 64.8765C106.744 65.1345 107.132 65.0055 107.068 64.7475C105.967 60.0398 105.773 55.461 106.614 50.6888C106.614 50.5598 106.485 50.5598 106.42 50.6243C105.449 55.332 105.449 60.1688 106.679 64.8765Z" fill="#252525"/>
<path d="M69.9758 143.683C70.1052 144.134 70.17 144.586 70.17 145.102C70.1052 147.488 68.1633 148.906 66.1566 149.745C67.3865 147.746 68.6811 145.682 69.9758 143.683Z" fill="white"/>
<path d="M49.2614 135.88C48.6788 138.782 48.0962 141.684 47.1252 144.521C46.9958 143.941 46.8016 143.36 46.5426 142.78C46.219 142.071 45.6364 141.232 45.5069 140.394C45.1833 138.201 46.4779 137.298 47.9668 136.46C48.4199 136.266 48.8083 136.073 49.2614 135.88Z" fill="white"/>
<path d="M116.324 120.338C116.518 123.175 115.353 125.239 113.67 127.431C111.21 130.591 110.045 134.525 107.326 137.492C101.306 143.941 95.0273 150.003 89.8487 157.226C89.7192 156.71 89.525 156.194 89.2661 155.613C88.2303 152.84 87.1946 150.132 86.0294 147.359C85.9 147.036 85.3174 147.165 85.4469 147.488C86.0942 149.229 86.7415 150.97 87.3888 152.711C88.3598 155.162 89.7839 157.226 88.1656 159.87C86.2236 163.03 83.3754 165.932 81.045 168.834C79.6857 170.51 78.5205 172.703 75.9959 172.832C74.1187 172.961 71.9825 171.865 70.4289 170.962C67.5807 169.285 65.4445 166.77 63.8909 163.868C64.6677 163.481 65.315 162.449 65.7034 161.933C66.8039 160.515 67.5807 158.902 68.0338 157.226C68.0985 156.968 67.7101 156.839 67.6454 157.097C67.1923 158.322 66.6744 159.418 65.9624 160.515C65.6387 161.03 63.9557 163.803 62.8552 163.223C62.3373 162.965 62.0784 162.32 61.949 161.546C61.949 161.546 61.949 161.482 62.0137 161.482C62.0784 161.353 62.0137 161.224 61.949 161.159C61.8195 159.999 61.949 158.58 62.2079 157.419C62.2726 156.903 62.4021 156.452 62.5315 156.065C62.5315 156 62.5963 156 62.5963 155.936C63.632 154.13 64.6677 152.389 65.7034 150.583C65.7682 150.648 65.8329 150.648 65.9624 150.583C69.0048 149.68 71.3352 147.165 70.7526 144.07C70.8173 144.005 70.882 143.876 70.9468 143.812C71.7236 142.973 73.2771 142.199 73.9892 141.619C75.0249 140.91 76.0606 140.136 77.0964 139.426C77.3553 139.233 77.2258 138.846 76.9022 138.846C74.1834 138.459 71.5941 138.008 69.3932 136.202C69.1343 136.008 68.7459 136.331 69.0048 136.589C70.8173 138.524 73.5361 139.039 76.0606 139.362C74.8307 140.265 73.6655 141.103 72.4356 142.006C71.7883 142.457 71.0115 142.909 70.4936 143.618C70.4289 143.425 70.4289 143.296 70.3642 143.102C68.8753 139.168 63.632 136.847 59.9422 135.493C55.9288 134.074 51.2681 133.751 47.4489 135.88C46.219 136.524 44.9243 137.427 44.6006 138.846C45.8953 133.88 46.9957 129.044 49.3261 124.4C50.3618 122.272 51.5918 120.209 52.9511 118.274C54.1811 116.533 55.6699 114.92 55.9936 112.728C56.0583 112.341 55.4757 112.212 55.411 112.599C55.152 113.953 54.5047 115.049 53.7279 116.146C53.7927 114.533 53.6632 112.857 53.7279 111.18C53.7279 110.858 53.7279 110.6 53.7279 110.277C53.7279 108.6 54.3753 108.02 55.7346 108.407C56.9646 108.407 58.0003 108.665 59.1655 108.987C62.7257 110.084 66.0918 111.631 69.3932 113.244C69.7169 113.373 69.9758 112.921 69.6521 112.792C67.5807 111.567 65.3798 110.535 63.1141 109.697C60.7838 108.794 58.1945 107.633 55.6699 107.633C55.0873 107.633 54.3753 107.633 53.8574 107.891C54.7636 106.666 56.1878 105.956 57.2235 104.86C58.1297 103.893 58.9065 102.732 59.4244 101.507C59.9423 100.346 60.1364 99.1205 60.2659 97.8952C60.6543 94.9931 61.5606 92.6715 64.5383 92.1556C64.2146 92.9295 64.4735 94.0903 64.7325 94.7997C65.315 96.3474 66.6097 97.4437 67.9043 98.4756C68.1633 98.669 68.5517 98.2176 68.2927 98.0241C67.516 97.3148 66.7392 96.7343 66.0918 95.896C65.3798 94.9931 64.5383 93.3809 65.0561 92.1556C65.1856 92.1556 65.2503 92.1556 65.3798 92.0911C65.6387 92.0911 65.7034 91.8331 65.6387 91.6397C66.0271 91.3172 66.286 90.9303 66.545 90.5433C67.3218 89.3825 68.228 88.6087 69.5874 88.3507C68.4869 91.4462 67.9691 94.8642 69.9758 97.7017C72.824 101.7 77.9379 103.764 81.4334 107.182C82.9223 108.665 84.1522 110.342 85.9647 111.438C87.9067 112.599 90.1723 113.179 92.2438 113.824C97.1634 115.307 102.083 116.404 107.262 115.823C107.456 115.823 107.521 115.63 107.456 115.501C107.585 115.501 107.715 115.436 107.909 115.372C110.175 114.791 112.181 113.953 113.605 112.276V112.341C114.9 114.791 116.13 117.5 116.324 120.338ZM100.659 139.233C101.047 139.426 101.306 138.911 100.983 138.653C94.5094 134.138 88.4893 129.624 86.0942 121.756C84.0875 115.049 81.5629 108.987 76.7727 103.764C76.6432 103.635 76.449 103.828 76.5785 103.957C79.362 107.375 81.6924 111.051 83.3107 115.178C84.6053 118.467 85.1232 122.014 86.5473 125.174C89.2013 131.43 95.0273 135.815 100.659 139.233ZM79.8151 134.59C81.4334 131.043 79.4267 127.496 77.42 124.529C77.2258 124.207 76.708 124.529 76.9022 124.852C78.7794 127.883 80.5919 130.785 79.4915 134.461C79.4915 134.525 79.4915 134.525 79.4915 134.59C79.4267 134.525 79.362 134.396 79.2973 134.332C78.3263 133.3 76.9669 132.462 75.8664 131.623C74.7013 130.72 73.5361 129.753 72.3062 128.915C72.0472 128.721 71.7883 129.108 71.9825 129.302C73.0829 130.269 74.3129 131.172 75.478 132.075C76.0606 132.526 76.6432 132.977 77.2258 133.429C77.5495 133.687 78.0673 133.945 78.3263 134.267C78.6499 134.396 78.7147 134.719 78.5205 135.106C78.6499 135.493 78.5852 135.815 78.3263 135.944C77.8084 135.686 77.0316 135.428 76.6432 135.299C75.8664 134.912 75.0897 134.59 74.3129 134.203C72.5004 133.364 70.7526 132.333 69.199 131.043C68.9401 130.849 68.5517 131.172 68.8106 131.43C70.4289 132.913 72.3062 133.945 74.3129 134.848C75.2839 135.299 76.3196 135.751 77.2906 136.137C78.2615 136.589 78.9736 136.524 77.679 137.621C77.2258 138.008 76.6432 138.201 76.1254 138.459C75.9959 138.524 76.0606 138.782 76.2548 138.717C77.2258 138.395 79.8799 137.556 78.8441 136.331C78.7794 136.266 78.7147 136.202 78.5852 136.137C79.2973 135.88 79.9446 135.428 79.5562 134.719C79.6209 134.654 79.7504 134.654 79.8151 134.59Z" fill="#252525"/>
<path d="M37.2859 78.2903C37.1564 78.2259 36.8975 78.2259 36.8975 78.4838C36.9622 80.5475 36.7033 82.4822 36.1207 84.3524C36.056 84.3524 36.056 84.3524 35.9912 84.3524C33.5314 84.6103 31.0716 84.6103 28.6765 84.5458C29.259 83.256 30.1653 81.9663 31.3305 80.8054C33.5314 78.6773 36.1207 76.4846 36.4444 73.3246C36.9622 74.8079 37.2211 76.4846 37.2859 78.2903Z" fill="#252525"/>
<path d="M35.797 85.1263C35.6676 85.4487 35.5381 85.7067 35.4086 86.0291C34.1787 88.8667 32.2367 91.3173 29.8416 93.123C27.9644 90.4789 27.4465 87.8348 28.2233 85.2552C30.8773 85.4487 33.4019 85.3842 35.797 85.1263Z" fill="#252525"/>
<path d="M27.4466 85.2552C26.6698 88.0928 27.3818 91.3818 29.5827 93.3809C26.0872 95.9605 21.6854 97.3793 17.0894 96.9279C21.8796 95.2511 23.8863 89.834 25.0515 84.9973C25.893 85.1263 26.6698 85.1908 27.4466 85.2552Z" fill="#252525"/>
<path d="M21.1675 84.4168C22.2679 84.6103 23.3684 84.8038 24.5336 84.9972C23.2389 89.9629 21.2322 94.7352 16.1831 96.8633C15.0179 96.6698 13.8527 96.4119 12.6875 96.025C8.99777 94.6707 6.02007 92.2201 4.01337 89.1891C9.38616 90.2854 18.7076 90.2209 21.1675 84.4168Z" fill="#252525"/>
<path d="M20.3907 84.2234C20.326 84.3523 20.1965 84.5458 20.1318 84.6748C18.9019 86.545 16.701 87.6413 14.6295 88.2862C11.0693 89.3825 7.3795 88.9956 3.68975 88.6086C1.10045 84.4813 0.0647253 79.3222 0.906248 74.4854C6.14958 79.4511 13.1407 82.6756 20.3907 84.2234Z" fill="#252525"/>
<path d="M19.4197 77.3875C20.5849 79.1287 21.3617 81.3214 20.7791 83.385C19.6787 83.1271 18.5135 82.8691 17.413 82.5467C11.3282 80.7409 6.14957 77.6454 1.03571 74.034C1.4241 71.9059 2.20089 69.9067 3.30134 68.0365C4.07813 66.7467 5.04912 65.5859 6.14957 64.4896C6.7969 64.3606 7.37949 63.9092 7.89735 63.5222C8.54467 63.0708 9.192 62.6194 9.77459 62.168C10.163 64.812 11.1987 67.1981 12.7523 69.4553C14.6295 72.3573 17.4778 74.5499 19.4197 77.3875Z" fill="#252525"/>
<path d="M25.893 67.4561C26.7345 71.8414 26.3461 76.4202 25.4398 80.8699C25.2457 81.9663 24.9867 83.0626 24.7278 84.1589C23.6273 84.0299 22.5269 83.8364 21.4912 83.643C21.4912 83.514 21.5559 83.4495 21.5559 83.3205C22.3974 79.8381 20.0671 76.8071 17.8661 74.421C14.5648 70.8096 11.134 67.1981 10.4219 62.2324C10.4219 62.1035 10.3572 61.91 10.3572 61.7165C10.4219 61.652 10.5514 61.5231 10.6161 61.4586C11.7166 62.039 13.0112 61.4586 14.2411 61.0071C16.7657 60.1043 19.4197 60.1688 22.009 60.8137C22.5916 60.9427 23.1095 61.1361 23.6273 61.3296C24.7278 63.2643 25.5046 65.3279 25.893 67.4561Z" fill="#252525"/>
<path d="M36.056 72.2283C35.9913 72.2928 35.9265 72.3573 35.9265 72.4218C35.3439 77.8389 29.7122 79.5802 27.7702 84.2879V84.3524C26.9287 84.2879 26.1519 84.2234 25.3751 84.1589C25.5693 83.385 25.6988 82.6112 25.893 81.9018C26.864 77.1296 27.3171 72.0994 26.3461 67.3916C25.9577 65.3924 25.3104 63.3933 24.3394 61.5231C25.0515 61.781 25.7635 62.1035 26.4109 62.4259C28.8707 63.5867 30.9421 65.07 32.6899 66.8757C34.114 68.359 35.2792 70.2292 36.056 72.2283Z" fill="#252525"/>
<path d="M141.376 79.3222C142.217 83.385 143.318 88.4152 141.699 92.4136C141.246 93.6389 140.275 94.6062 139.175 94.9287C138.463 95.1221 137.751 94.9932 137.039 94.4773C137.039 94.4773 137.039 94.4772 136.974 94.4128C131.795 94.7997 126.681 94.1548 121.697 92.9295H121.373C121.438 92.9295 121.438 92.865 121.503 92.865C118.914 92.2201 116.324 91.4462 113.735 90.6079C109.592 89.2536 105.708 87.4479 101.306 87.2544C98.5228 87.1254 95.6746 87.061 93.7326 84.8038H93.6679C91.6612 84.9973 90.3018 87.5769 88.1656 87.061C87.1299 86.803 86.612 85.7712 87.1299 84.9328C85.3821 86.0291 83.8933 85.2552 84.4759 82.9981C84.929 81.0634 86.2236 79.4512 87.9067 78.4838C86.7415 78.6773 85.5763 78.9353 84.7995 79.9026C84.1522 80.741 83.958 81.7728 83.2459 82.4822C83.2459 82.5467 83.2459 82.6112 83.1812 82.6112C83.1165 82.6757 83.0517 82.6757 82.987 82.6757C82.987 82.6757 82.987 82.6757 82.9223 82.7402H82.8575C81.4982 83.1916 80.9803 81.3859 81.1745 80.2251C81.4982 78.2259 82.7928 76.5492 84.4759 75.5173C82.9223 75.5173 81.9513 76.8716 81.1098 78.0324C80.4624 78.9353 79.8151 79.7736 79.1678 80.6765C79.2325 80.741 79.2325 80.87 79.1031 80.9344C78.3263 81.1279 77.3553 81.0634 77.2258 80.1606C77.1611 79.3867 77.679 78.4838 77.9379 77.8389C78.2615 77.1296 78.5852 76.4202 78.9736 75.7108C78.2615 75.3239 77.8731 74.3565 78.4557 73.6471C79.2325 72.6153 80.4624 72.9377 81.4982 73.3892C81.9513 72.2284 83.5696 72.3573 84.6701 72.4218C86.2236 72.4218 88.2951 72.1639 89.3955 73.5181C90.3665 73.1312 91.2728 73.4537 92.2438 73.9051C94.2505 74.8724 96.1277 76.0977 98.3286 76.4847V76.4202C99.2349 75.3883 101.112 75.9043 101.306 77.2585C104.672 77.6455 108.038 78.2259 111.405 78.8063C113.282 79.1287 115.224 79.5802 117.166 79.3867C118.849 79.2577 120.208 78.2904 121.762 77.9034C118.849 75.4528 118.007 71.6479 116.972 68.1655C116.26 65.9084 115.483 63.6512 114.059 61.781C112.699 60.0398 111.534 58.6211 110.887 56.4929C109.074 50.7533 108.362 40.693 116.324 39.2097C117.36 39.0162 118.331 39.0807 119.302 39.3387C117.036 37.9199 114.771 36.7591 112.246 35.7917C111.016 35.3403 109.916 34.7599 108.88 34.0505C108.88 38.6293 105.514 41.6603 102.083 44.2399C98.2639 47.0129 95.0273 50.2374 91.8554 53.6554L91.467 53.3329C93.9268 50.7533 96.1277 47.9803 98.9759 45.7231C102.989 42.6276 108.297 39.7256 108.297 33.9215C108.297 33.8571 108.297 33.7926 108.362 33.7926C107.974 33.5346 107.585 33.2767 107.262 32.9542L107.521 32.5028C111.858 35.0179 116.454 36.6946 120.726 39.4677C120.92 39.5966 120.92 39.7901 120.856 39.9836C122.603 40.7574 124.092 42.1117 125.322 43.466C128.106 46.5615 129.141 50.1729 130.436 53.9778C131.99 58.5566 135.679 61.6521 137.492 66.1018C139.24 70.2292 140.405 74.8724 141.376 79.3222Z" fill="#C2DDD8"/>
<path d="M121.632 92.9295C121.762 92.9939 121.827 93.1874 121.697 93.3809C117.878 97.8952 117.101 104.151 115.224 109.568C114.9 110.471 114.512 111.244 113.994 111.889L113.8 112.147C112.376 113.824 110.369 114.727 108.103 115.243C107.974 115.307 107.844 115.307 107.65 115.372L107.521 115.049C107.65 114.985 107.844 114.985 107.974 114.92C109.851 114.34 111.664 113.566 112.958 112.147C114.771 110.213 115.094 107.117 115.871 104.667C117.166 100.604 118.525 96.2829 121.309 92.9939H121.632V92.9295Z" fill="#1D1D1B"/>
<path d="M114.188 111.954C116.065 115.63 118.007 119.951 116.518 124.078C115.936 125.755 114.771 127.109 113.67 128.463C112.117 130.462 111.275 132.655 110.11 134.912C107.844 139.104 103.443 142.199 100.271 145.682C96.7751 149.487 93.6679 153.614 90.1076 157.355L89.8487 157.161C94.9626 149.938 101.306 143.876 107.326 137.427C110.045 134.525 111.21 130.527 113.67 127.367C115.353 125.174 116.518 123.175 116.324 120.273C116.13 117.435 114.9 114.727 113.8 112.147V112.083L113.994 111.825C114.059 111.889 114.123 111.889 114.188 111.954Z" fill="#1D1D1B"/>
<path d="M115.677 71.003C115.871 71.2609 115.483 71.5189 115.289 71.3254C107.78 62.8773 106.291 49.8504 110.563 39.5966C110.628 39.5321 110.757 39.5321 110.693 39.661C106.679 50.4308 108.945 61.781 115.677 71.003Z" fill="#1D1D1B"/>
<path d="M109.398 14.1877C109.463 14.4457 109.204 14.5746 109.01 14.5102C109.139 18.0571 110.045 21.6685 108.686 25.022C107.715 27.3436 106.938 29.3428 107.132 31.8579C107.132 31.9868 107.132 32.1158 107.197 32.2448C107.326 32.3093 107.456 32.3738 107.521 32.4383L107.262 32.8897C107.262 33.1476 107.262 33.4056 107.197 33.6636C107.715 37.275 103.96 39.8546 101.565 41.9827C97.4871 45.6586 93.3442 49.1411 89.0719 52.559C88.813 52.7525 88.4893 52.688 88.4246 52.3655C87.3241 48.6896 83.6991 46.626 83.0518 42.8211C82.5987 40.3705 83.246 37.9844 84.7996 36.1142C84.7996 35.5338 84.7348 34.8889 84.6701 34.3085L84.0875 33.986C84.1522 33.9215 84.217 33.857 84.2817 33.7925C84.3464 33.7281 84.4759 33.7925 84.4759 33.857C84.5406 33.857 84.6054 33.857 84.6701 33.7925C84.4759 31.213 84.2817 28.6334 84.217 25.9893C84.217 25.8603 84.2817 25.7958 84.3464 25.7313C82.4045 24.506 81.2393 22.3779 80.8509 20.1208C80.7214 19.4759 80.5272 18.573 80.9803 17.9926C81.2393 17.6057 81.6277 17.5412 82.0808 17.4122C80.6567 9.73793 84.6701 1.09632 93.0206 -3.17395e-06C96.9693 -0.51592 101.501 0.451424 104.672 2.90203C108.168 5.73957 108.88 10.1249 109.398 14.1877ZM84.3464 44.5623C84.8643 41.9827 84.929 39.4676 84.8643 37.017C83.5696 39.3386 83.1812 42.1117 84.3464 44.5623Z" fill="#C2DDD8"/>
<path d="M107.65 115.372C107.65 115.501 107.585 115.694 107.456 115.694C102.342 116.275 97.3577 115.178 92.438 113.695C90.3018 113.05 88.0362 112.47 86.1589 111.309C84.3464 110.213 83.1165 108.536 81.6277 107.053C78.1968 103.635 73.0182 101.571 70.17 97.5727C68.1633 94.7352 68.6812 91.3172 69.7816 88.2217L70.17 88.3507C69.7169 90.0919 69.2637 91.8332 69.3932 93.6389C69.5874 96.3474 71.3352 98.2176 73.3419 99.8299C76.4491 102.345 79.8799 104.344 82.5986 107.246C84.0228 108.729 85.2527 110.277 87.1299 111.245C89.2014 112.341 91.5965 112.986 93.8621 113.631C98.0697 114.856 102.342 115.694 106.679 115.307C106.938 115.243 107.262 115.114 107.521 115.049L107.65 115.372Z" fill="#1D1D1B"/>
<path d="M107.068 64.7476C107.132 65.0055 106.744 65.07 106.679 64.8766C105.449 60.1688 105.449 55.3966 106.42 50.6244C106.42 50.4954 106.614 50.5599 106.614 50.6889C105.773 55.4611 105.967 60.0398 107.068 64.7476Z" fill="#1D1D1B"/>
<path d="M100.983 138.717C101.306 138.975 101.047 139.491 100.659 139.297C95.0273 135.88 89.2013 131.494 86.4826 125.303C85.0585 122.079 84.5406 118.532 83.246 115.307C81.6276 111.18 79.2973 107.504 76.5138 104.086C76.3843 103.957 76.5785 103.764 76.708 103.893C81.5629 109.116 84.0227 115.178 86.0294 121.885C88.4245 129.689 94.5094 134.203 100.983 138.717Z" fill="#1D1D1B"/>
<path d="M91.5317 53.2684L91.9201 53.5908C90.6255 54.9451 89.3956 56.2994 88.1009 57.6537C87.9067 57.8471 87.6478 57.7181 87.5831 57.5247C86.8063 54.8161 86.0295 51.9141 84.4759 49.528C83.3107 47.6578 81.1745 46.368 80.333 44.3043C78.9736 41.0798 80.7214 37.7909 82.9223 35.3403C81.1098 36.6301 79.8151 38.5647 78.1321 40.1125C77.1611 41.0153 76.1901 41.5313 75.0897 42.1762C73.1477 43.337 72.1767 44.8847 71.141 46.8194C69.1343 50.6243 67.1276 54.8161 67.7102 59.2014C68.1633 62.6194 70.4289 65.3924 71.4647 68.6814C72.0472 66.7467 73.2124 64.812 74.5071 63.3287C74.6366 63.1998 74.8955 63.3932 74.766 63.5222C72.5651 66.4887 70.4289 70.874 73.1477 73.9695C73.2124 73.9695 73.2124 74.034 73.2772 74.0985C73.4714 74.292 73.6656 74.5499 73.9245 74.7434C74.3129 75.0658 73.795 75.5818 73.4066 75.2593C73.2124 75.1303 73.083 74.9369 72.8888 74.8079L72.4356 74.7434C72.5004 74.6789 72.5651 74.5499 72.6298 74.4854C71.3352 73.0667 71.0115 71.3899 71.2705 69.6487C71.141 69.6487 71.0115 69.5842 70.9468 69.3908C70.8173 69.0038 70.6879 68.6169 70.5584 68.2299C67.4512 71.8414 64.4088 75.5173 61.3017 79.1287C58.5829 82.2887 55.9936 85.7711 52.757 88.4152C50.2971 90.3499 47.1252 91.7686 43.8886 91.2527C40.7167 90.7368 38.3864 88.0927 35.8618 86.2225C32.1073 95.1221 21.8148 100.281 11.846 96.3474C5.43751 93.7678 1.2299 87.9638 0.258911 81.1923C-0.388414 76.7426 0.323643 71.7124 2.78348 67.843L3.23661 68.101C2.13615 69.9712 1.35936 71.9703 0.970968 74.0985C6.14957 77.7099 11.2634 80.8054 17.3483 82.6111C18.4487 82.9336 19.6139 83.256 20.7144 83.4495C21.297 81.4503 20.5202 79.2577 19.355 77.452C17.4778 74.5499 14.6295 72.3573 12.6228 69.5197C11.0692 67.2626 10.0335 64.8765 9.64512 62.2324H10.2924C11.0045 67.1981 14.4353 70.8095 17.7367 74.4209C19.9376 76.8071 22.268 79.8381 21.4264 83.3205C21.4264 83.4495 21.3617 83.514 21.3617 83.6429C22.4622 83.8364 23.5626 84.0299 24.5983 84.1589C24.8573 83.0625 25.1162 81.9662 25.3104 80.8699C26.2166 76.4201 26.6698 71.8414 25.7635 67.4561L26.1519 67.3916C27.1229 72.1638 26.6698 77.1295 25.6988 81.9017C25.5693 82.6111 25.3751 83.385 25.1809 84.1589C25.9577 84.2234 26.7992 84.3523 27.576 84.3523V84.2878C29.4533 79.6446 35.1497 77.8389 35.7323 72.4218C35.7323 72.2928 35.7971 72.2283 35.8618 72.2283C35.085 70.2291 33.9198 68.3589 32.3662 66.8112L32.8841 66.4887C34.114 67.7785 35.2145 69.3263 35.9912 70.9385C36.1207 71.003 36.2502 71.0675 36.3796 71.132C38.2569 71.9703 40.3931 71.5189 42.4645 71.6479C43.9533 71.7124 44.4065 71.5834 45.5717 70.6161C46.5426 69.8422 47.3842 68.8748 48.2904 67.972C51.9154 64.4251 55.5405 61.2006 57.8708 56.6218C60.8485 50.7533 64.2146 41.7892 72.4356 42.4341C72.6298 42.4341 72.6946 42.5631 72.7593 42.6921C72.824 42.6276 72.9535 42.4986 73.0182 42.4341C74.7013 41.0154 76.708 40.306 78.2616 38.6937C79.9446 36.888 81.4982 34.7599 83.8933 34.0505L84.4759 34.3729C84.217 34.4374 83.958 34.5664 83.6991 34.6954C82.3397 36.5011 80.8509 38.2423 80.3977 40.4994C79.6857 43.9819 81.8219 45.5296 83.7638 47.9157C84.7996 49.2055 85.5763 50.6243 86.1589 52.1076C86.5473 53.0749 86.871 54.1067 87.1947 55.0741C87.6478 56.5573 87.3889 56.9443 88.6835 55.7835C89.9134 54.9451 90.7549 54.1067 91.5317 53.2684ZM36.8975 78.4193C36.8975 78.2258 37.1564 78.1613 37.2859 78.2258C37.2212 76.4201 36.9622 74.7434 36.4444 73.1956C36.1854 76.3556 33.5314 78.5483 31.3305 80.6764C30.1006 81.8372 29.1943 83.127 28.6765 84.4168C31.1363 84.5458 33.5961 84.4813 35.9912 84.2234C36.056 84.2234 36.056 84.2234 36.1207 84.2234C36.7033 82.4821 36.9622 80.483 36.8975 78.4193ZM35.4734 86.0291C35.6029 85.7066 35.7323 85.4487 35.8618 85.1262C33.402 85.3842 30.8774 85.4487 28.3528 85.3197C27.576 87.8348 28.0292 90.5433 29.9711 93.1874C32.3015 91.3172 34.2435 88.8666 35.4734 86.0291ZM29.5827 93.3809C27.4466 91.3817 26.6698 88.0927 27.4466 85.2552C26.6698 85.1907 25.893 85.1262 25.1162 85.0617C23.951 89.8984 21.9443 95.2511 17.1541 96.9923C21.6854 97.3792 26.0872 96.0249 29.5827 93.3809ZM24.5336 84.9972C23.4331 84.8683 22.268 84.6748 21.1675 84.4168C18.7077 90.2209 9.38619 90.2209 4.0134 89.1246C6.08484 92.2201 8.9978 94.6707 12.6876 95.9605C13.8527 96.3474 15.0179 96.6698 16.1831 96.7988C21.1675 94.6707 23.2389 89.9629 24.5336 84.9972ZM20.1318 84.7393C20.1965 84.6103 20.326 84.4168 20.3907 84.2878C13.1407 82.7401 6.14957 79.5156 0.841503 74.5499C0.064713 79.3866 1.0357 84.5458 3.625 88.6731C7.25002 89.1246 10.9398 89.447 14.5648 88.3507C16.701 87.7058 18.9019 86.6095 20.1318 84.7393Z" fill="#C2DDD8"/>
<path d="M90.0429 157.419C89.9781 157.484 89.9134 157.548 89.9134 157.613C89.9781 158.193 89.8487 158.773 89.3308 159.547C86.4826 163.675 83.1165 167.931 79.7504 171.671C78.5852 172.961 77.2906 173.541 75.9312 173.606C76.6433 177.669 75.2191 181.151 72.2414 183.924C70.5584 185.472 68.6812 186.762 66.9981 188.31C65.3151 189.922 64.0851 191.857 63.1142 193.92C61.4311 197.274 60.3307 200.95 57.9356 203.981C55.7994 206.689 52.6275 208.559 49.3909 209.785C49.2614 209.849 49.0672 209.914 48.9377 209.978C45.7658 211.139 42.0114 211.719 38.9689 210.043C36.1207 208.495 36.5091 205.335 37.5448 202.691C38.9689 199.015 41.9466 196.242 44.6007 193.404C46.4132 191.534 47.9668 189.599 49.3261 187.342C50.2971 185.666 51.1386 183.989 52.4333 182.57C53.0806 181.796 53.8574 181.151 54.6989 180.571C55.4757 179.99 56.8998 179.475 57.4824 178.765C58.5182 177.54 57.4177 174.573 57.4824 172.961C57.6766 168.963 59.4244 165.158 61.3664 161.675C61.1722 160.321 61.3664 158.773 61.69 157.484L62.1432 157.548C61.949 158.709 61.8195 160.128 61.8842 161.288C61.949 161.353 62.0137 161.482 61.949 161.611C61.949 161.611 61.949 161.675 61.8842 161.675C62.0137 162.449 62.2726 163.094 62.7905 163.352C63.8262 163.933 65.5093 161.159 65.8977 160.644C66.6097 159.547 67.1276 158.451 67.5807 157.226C67.6454 156.968 68.0338 157.097 67.9691 157.355C67.4512 159.096 66.7392 160.644 65.6387 162.062C65.2503 162.578 64.603 163.61 63.8262 163.997C65.3798 166.899 67.516 169.414 70.3642 171.091C71.9178 171.994 74.054 173.09 75.9312 172.961C78.391 172.768 79.6209 170.639 80.9803 168.963C83.246 166.061 86.1589 163.159 88.1009 159.999C89.7192 157.355 88.2304 155.355 87.3241 152.84C86.6768 151.099 86.0295 149.358 85.3821 147.617C85.2527 147.23 85.8353 147.101 85.9647 147.488C87.0652 150.196 88.1009 152.969 89.2014 155.742C89.4603 156.387 89.6545 156.903 89.7839 157.355L90.0429 157.419Z" fill="#C2DDD8"/>
<path d="M77.4847 124.529C79.4914 127.431 81.4982 131.043 79.8798 134.59C79.8151 134.719 79.6856 134.654 79.6209 134.59C79.6209 134.59 79.6209 134.525 79.6209 134.461C80.7214 130.785 78.9089 127.818 77.0316 124.852C76.7079 124.465 77.2258 124.207 77.4847 124.529Z" fill="#1D1D1B"/>
<path d="M79.5562 134.59C79.9446 135.299 79.2973 135.751 78.5852 136.009L78.3263 135.88C78.5852 135.751 78.65 135.493 78.5205 135.041C78.7147 134.654 78.65 134.332 78.3263 134.203C78.0674 133.88 77.5495 133.622 77.2259 133.364C76.6433 132.913 76.0607 132.462 75.4781 132.01C74.3129 131.107 73.083 130.204 71.9825 129.237C71.7236 129.044 72.0473 128.657 72.3062 128.85C73.5361 129.689 74.7013 130.656 75.8665 131.559C76.9669 132.397 78.391 133.235 79.2973 134.267C79.4268 134.396 79.4915 134.461 79.5562 134.59Z" fill="#1D1D1B"/>
<path d="M78.8442 136.202C79.8152 137.427 77.2259 138.266 76.2549 138.588C76.1254 138.653 75.996 138.395 76.1254 138.33C76.6433 138.137 77.2259 137.879 77.679 137.492C78.9737 136.395 78.2616 136.46 77.2906 136.008C76.3196 135.557 75.2839 135.17 74.3129 134.719C72.371 133.816 70.429 132.784 68.8107 131.301C68.5517 131.043 68.9401 130.656 69.1991 130.914C70.7526 132.204 72.5004 133.171 74.3129 134.074C75.0897 134.461 75.8665 134.783 76.6433 135.17C77.0317 135.364 77.8085 135.557 78.3263 135.815L78.5853 135.944C78.7147 136.073 78.7795 136.137 78.8442 136.202Z" fill="#1D1D1B"/>
<path d="M77.0316 138.782C77.3553 138.846 77.4848 139.168 77.2258 139.362C76.1901 140.071 75.1544 140.845 74.1187 141.555C73.3419 142.07 71.7883 142.844 71.0762 143.747L70.7526 143.554C71.2057 142.909 72.0472 142.457 72.6946 141.942C73.9245 141.039 75.0897 140.2 76.3196 139.297C73.795 138.975 71.0762 138.459 69.2637 136.524C69.0048 136.266 69.3932 135.944 69.6521 136.137C71.7236 137.943 74.3129 138.395 77.0316 138.782Z" fill="#1D1D1B"/>
<path d="M75.9312 94.2838C76.1901 94.5418 75.8017 94.9287 75.5428 94.6707C73.5361 92.865 71.5294 90.6724 70.2348 88.1573C70.2348 88.1573 70.2348 88.1573 70.17 88.1573C70.17 88.2218 70.17 88.2863 70.1053 88.2863L69.7169 88.1573C68.4222 88.4152 67.4513 89.1891 66.6745 90.3499C66.4155 90.8014 66.0919 91.1238 65.7682 91.4463C65.8329 91.6397 65.7035 91.8332 65.5093 91.8977C65.3798 91.8977 65.3151 91.8977 65.1856 91.9622C64.603 93.1875 65.5093 94.7997 66.2213 95.7026C66.8687 96.4765 67.6455 97.1213 68.4222 97.8307C68.6812 98.0887 68.3575 98.5401 68.0338 98.2822C66.7392 97.3148 65.5093 96.154 64.862 94.6063C64.603 93.8969 64.3441 92.8005 64.6678 91.9622C61.6901 92.4781 60.7838 94.7352 60.3954 97.7018C60.266 98.9916 60.0718 100.152 59.5539 101.313C59.036 102.538 58.2592 103.699 57.353 104.667C56.3173 105.763 54.8932 106.472 53.9869 107.698H53.728V107.633C54.5048 106.021 56.2525 105.118 57.353 103.699C59.1655 101.378 59.3597 99.1205 59.8128 96.283C60.266 93.4454 62.3374 91.4463 65.2504 91.2528C65.6387 90.9303 65.8977 90.5434 66.2213 90.092C66.545 89.5761 66.8687 89.1246 67.3218 88.6732C68.0986 88.0283 69.0048 87.6414 69.9758 87.5124C69.5874 86.6095 69.3285 85.7067 69.199 84.8038C68.6812 81.0634 70.2995 77.581 72.4357 74.6145L72.8888 74.679C70.9468 77.839 69.1343 81.5793 70.0406 85.3842C70.8821 89.0601 73.5361 91.6397 75.9312 94.2838Z" fill="#1D1D1B"/>
<path d="M70.6878 143.554L71.0115 143.747C70.9468 143.812 70.882 143.941 70.8173 144.005C71.3999 147.101 69.0695 149.616 66.0271 150.519C65.8976 150.519 65.8329 150.519 65.7682 150.519C64.7324 152.26 63.6967 154.066 62.661 155.871C62.661 155.936 62.5963 155.936 62.5963 156C62.5315 156.387 62.4021 156.839 62.2726 157.355L61.8195 157.29C60.978 158.773 60.0717 160.192 59.036 161.482C57.6766 163.159 55.8641 164.19 54.5694 165.932C51.7212 169.737 50.0382 174.638 47.7725 178.83C45.3774 183.086 42.8529 187.213 40.1341 191.212L40.0694 191.276C40.1341 191.276 40.1341 191.341 40.1988 191.341C40.3283 191.405 40.3283 191.534 40.2636 191.728C38.3216 195.79 36.1854 199.724 34.114 203.723C33.0135 205.786 31.8483 207.85 31.1363 210.107C30.5537 211.977 30.8126 213.783 30.5537 215.653C30.4242 216.427 30.3595 216.363 30.1653 217.007C29.7769 218.233 29.5827 219.394 29.6474 220.748C29.7122 222.296 29.9711 223.779 29.6474 225.262C29.1296 227.648 27.5113 229.583 25.1162 230.034C25.1162 230.099 25.1162 230.228 25.1162 230.292C24.3394 231.776 24.9867 233.968 23.0447 234.678C21.2322 235.322 18.0603 234.291 16.3125 233.839C14.5648 233.323 11.0692 232.549 9.96875 230.937C8.99776 229.518 9.90402 227.842 10.875 226.681L10.9397 226.616C10.875 226.616 10.8103 226.616 10.7455 226.552C9.83929 225.649 8.73883 223.843 9.38616 222.489C9.64509 221.909 10.5513 221.651 10.875 221.135C11.4576 220.232 11.5871 218.942 11.9755 217.975C13.0759 215.266 14.8237 212.429 16.5067 209.978C17.0893 209.14 17.5425 208.688 18.3192 208.753C18.3192 208.753 18.3192 208.753 18.3192 208.688C18.384 208.559 18.4487 208.43 18.5782 208.301C19.2255 207.27 20.0023 206.302 20.5849 205.206C21.6853 203.271 21.8795 201.852 21.7501 199.595C21.6206 197.919 22.009 196.629 22.3327 194.952C22.5269 193.985 22.2032 194.501 22.7858 193.662C23.1094 193.211 23.951 192.63 24.1452 192.114C24.4041 191.599 24.3394 190.889 24.4041 190.309C24.7925 188.116 26.0224 186.568 27.3818 184.763C27.3818 184.763 27.3818 184.763 27.4465 184.698L27.3818 184.634C27.3818 184.634 27.3818 184.634 27.3818 184.569C28.1586 175.928 32.172 166.448 37.2211 159.354C39.9399 155.549 43.6297 152.582 45.7658 148.326C46.2837 147.294 46.7368 146.198 47.1252 145.102C47.0605 144.844 46.9957 144.65 46.8663 144.392C46.0895 142.586 44.6006 140.781 44.8596 138.846C44.8596 138.782 44.9243 138.653 44.9243 138.588C45.3127 137.169 46.5426 136.331 47.7725 135.622C51.5918 133.493 56.3172 133.816 60.2659 135.235C64.0204 136.589 69.199 138.846 70.6878 142.844C70.5584 143.231 70.6231 143.36 70.6878 143.554ZM70.17 145.102C70.17 144.586 70.1052 144.134 69.9758 143.683C68.6164 145.682 67.3865 147.681 66.1566 149.745C68.1633 148.971 70.1052 147.552 70.17 145.102ZM47.1252 144.521C48.0962 141.684 48.6788 138.782 49.2614 135.88C48.8083 136.073 48.3551 136.267 47.9667 136.46C46.4779 137.298 45.1832 138.137 45.5069 140.394C45.6364 141.232 46.219 142.071 46.5426 142.78C46.8015 143.36 46.9957 143.941 47.1252 144.521Z" fill="#C2DDD8"/>
<path d="M69.7816 112.663C70.1053 112.857 69.8463 113.308 69.5227 113.115C66.1566 111.502 62.7905 109.955 59.2949 108.858C58.1298 108.471 57.094 108.278 55.8641 108.278C54.5047 107.891 53.8574 108.536 53.8574 110.148C53.8574 110.471 53.8574 110.729 53.8574 111.051C53.7927 112.663 53.8574 114.34 53.8574 116.017H53.5985C53.469 114.662 53.4043 113.308 53.3395 111.954C53.2748 110.987 52.8864 109.374 53.3395 108.471C53.469 108.213 53.6632 108.02 53.8574 107.891C53.7927 107.891 53.7927 107.827 53.7927 107.762V107.698L54.0516 107.762C54.5695 107.504 55.2815 107.504 55.8641 107.504C58.3887 107.504 60.978 108.665 63.3084 109.568C65.5093 110.471 67.7102 111.502 69.7816 112.663Z" fill="#1D1D1B"/>
<path d="M55.4757 112.405C55.5405 112.018 56.123 112.212 56.0583 112.534C55.7347 114.727 54.2458 116.339 53.0159 118.08C51.6565 120.015 50.4266 122.079 49.3909 124.207C47.0605 128.85 45.96 133.687 44.6654 138.653C44.6007 138.846 44.6007 138.975 44.5359 139.168C44.5359 139.297 44.3417 139.233 44.3417 139.168C44.4712 134.59 46.0895 129.946 47.9668 125.755C49.0672 123.304 50.2971 120.982 51.786 118.79C52.3686 117.951 52.9512 117.113 53.5985 116.339C53.5985 116.21 53.5985 116.146 53.5337 116.017H53.7927C54.5695 114.92 55.2168 113.76 55.4757 112.405Z" fill="#1D1D1B"/>
<path d="M33.0783 66.4243L32.5604 66.7467C30.8774 64.941 28.7412 63.4577 26.2814 62.2969C25.6341 61.9745 24.922 61.652 24.2099 61.3941C25.1809 63.2643 25.8283 65.2635 26.2167 67.2626L25.8283 67.3271C25.3751 65.199 24.6631 63.1353 23.4979 61.1361C22.98 60.9427 22.3974 60.8137 21.8796 60.6202L22.009 60.0398C22.6564 60.1688 23.3037 60.3622 23.8863 60.6202C23.8863 60.6202 23.8863 60.6202 23.8216 60.6202C23.4979 60.0398 23.6274 59.4594 24.0805 59.008C24.7925 58.4276 25.7635 58.621 26.4109 59.0725C26.9934 59.3949 27.3818 59.9753 27.835 60.4267C28.3528 61.0071 29.0002 61.3941 29.5827 61.8455C30.2948 62.4259 30.8127 62.9418 30.9421 63.8447C30.9421 64.0382 30.7479 64.1026 30.6185 63.9737L30.489 64.1026C31.5247 64.941 32.3662 65.6504 33.0783 66.4243Z" fill="#BBD9D3"/>
<path d="M21.8148 60.1043C21.8796 60.1043 22.009 60.1688 22.0738 60.1688L21.9443 60.7492C19.4197 60.1043 16.7657 60.0398 14.1764 60.9427C12.9465 61.3941 11.6518 62.039 10.5514 61.3941C10.4866 61.4586 10.3572 61.5876 10.2924 61.652C10.2924 61.8455 10.3572 61.9745 10.3572 62.168H9.70984C9.12725 62.6194 8.47993 63.0708 7.8326 63.5222C7.31474 63.9092 6.73215 64.2961 6.08482 64.4896C4.98437 65.5859 4.01338 66.7467 3.23659 68.0365L2.78347 67.7786C2.20087 67.5206 2.07141 66.7467 2.39507 66.1663C2.654 65.7794 3.10713 65.4569 3.56026 65.2635C4.07812 64.941 4.59598 64.6186 5.17857 64.4251C4.59598 64.1671 4.14285 63.5222 4.46651 62.8773C4.79017 62.2969 5.69643 62.168 6.14956 61.7165C6.79688 61.0716 7.12054 60.2333 7.76787 59.5884C8.67412 58.6855 10.0335 58.4921 11.1987 59.0725C11.3282 59.137 11.3282 59.2659 11.2634 59.3304C12.2991 58.5565 13.9175 58.0406 14.8884 57.9117C17.2188 57.4602 19.7434 58.9435 21.8148 60.1043Z" fill="#BBD9D3"/>
</g>
<defs>
<clipPath id="clip0_39_890">
<rect width="142.541" height="235" fill="white"/>
</clipPath>
</defs>
</svg>
