<svg width="30" height="30" viewBox="0 0 30 30" fill="none" xmlns="http://www.w3.org/2000/svg">
<path d="M16.2138 2.42332C16.5531 1.9736 16.4985 1.01972 16.4502 0.17828C16.4484 0.14201 16.4464 0.106538 16.4443 0.0705142C15.9687 0.0251003 15.4873 0 15 0C13.1328 0 11.3462 0.343979 9.69727 0.96756C10.8735 1.53284 12.6943 2.5058 14.7182 3.94339C15.4087 3.34915 15.9295 2.80056 16.2138 2.42332Z" fill="#55BFA9"/>
<path d="M23.8141 10.9825C23.0748 11.0661 22.4513 11.1874 21.918 11.3576C24.4672 15.8082 25.461 21.4312 25.7043 25.5047C28.2296 22.9316 29.8334 19.4531 29.9851 15.6C28.245 13.4611 25.9398 10.7414 23.8141 10.9825Z" fill="#55BFA9"/>
<path d="M8.65979 7.14083C10.4509 6.76813 12.1336 5.86666 13.4753 4.91512C10.6763 2.98736 8.34178 1.98691 7.87739 1.79648C4.97355 3.36626 2.64983 5.8674 1.29797 8.89791C3.05512 8.1978 4.95814 7.84161 6.82729 7.49456C7.43197 7.38226 8.05702 7.2662 8.65979 7.14083Z" fill="#55BFA9"/>
<path d="M19.0275 7.57699C19.1873 7.73766 19.3468 7.90109 19.5051 8.06759C20.0894 8.68098 20.6196 9.35188 21.1058 10.0617C21.8138 9.79435 22.6473 9.60478 23.6451 9.49198C25.996 9.22607 28.0864 11.0883 29.8805 13.1386C29.4958 10.0305 28.1628 7.21749 26.1766 4.99902C25.0924 5.12968 23.8837 5.35104 22.6518 5.71865C21.8437 5.96002 20.5567 6.61582 19.0275 7.57699Z" fill="#55BFA9"/>
<path d="M17.0539 15.3233C17.6691 13.2395 18.3817 11.7373 19.7624 10.7623C19.3481 10.1674 18.9021 9.60913 18.4191 9.10197C18.1957 8.86729 17.9697 8.64065 17.7427 8.418C12.2033 12.1885 4.61534 19.1148 3.92535 25.1159C6.22857 27.6359 9.38066 29.3641 12.9291 29.8544C14.2211 27.282 15.4371 22.0528 16.16 18.9427C16.5072 17.4489 16.807 16.1591 17.0539 15.3233Z" fill="#55BFA9"/>
<path d="M10.7732 12.0188C12.7046 10.239 14.7443 8.64302 16.6099 7.36033C15.9881 6.81015 15.3643 6.30298 14.7519 5.83786C13.2024 7.00266 11.1736 8.14991 8.9653 8.60921C8.34687 8.7379 7.7136 8.85555 7.10137 8.9692C4.74243 9.40726 2.478 9.83151 0.573687 10.894C0.202828 12.1994 0 13.5757 0 15C0 18.1861 0.996526 21.1382 2.6904 23.5675C3.78776 19.2227 7.5517 14.9873 10.7732 12.0188Z" fill="#55BFA9"/>
<path d="M17.9019 6.5037C19.6864 5.36603 21.2249 4.57939 22.2231 4.28143C23.1195 4.01374 23.9988 3.81877 24.8314 3.67657C22.9073 2.00455 20.5553 0.812862 17.9589 0.293427C18.0164 1.34101 18.0415 2.49115 17.4113 3.32676C17.1119 3.72358 16.6053 4.26781 15.9462 4.85825C16.5917 5.36069 17.2477 5.9086 17.9019 6.5037Z" fill="#55BFA9"/>
<path d="M18.4924 15.748C18.2583 16.5414 17.9628 17.8116 17.6211 19.2822C16.6119 23.6244 15.6462 27.5099 14.5185 29.9877C14.6786 29.9928 14.8387 29.9999 15 29.9999C18.4958 29.9999 21.7095 28.8008 24.2598 26.796C24.1591 22.5332 23.1372 16.5036 20.563 12.0277C19.5646 12.7698 19.0273 13.9371 18.4924 15.748Z" fill="#55BFA9"/>
</svg>
