<svg width="18" height="18" viewBox="0 0 18 18" fill="none" xmlns="http://www.w3.org/2000/svg">
<path d="M1.59716 0.875254H7.01375C7.41167 0.875254 7.73604 1.1997 7.73604 1.59741V4.84736C7.73604 5.24525 7.41163 5.56965 7.01375 5.56965H1.59716C1.19944 5.56965 0.875003 5.24529 0.875003 4.84736V1.59741C0.875003 1.19966 1.19941 0.875254 1.59716 0.875254Z" stroke="black" stroke-width="1.08333"/>
<path d="M1.59716 8.0973H7.01375C7.41163 8.0973 7.73604 8.4217 7.73604 8.81959V16.4028C7.73604 16.8005 7.41167 17.125 7.01375 17.125H1.59716C1.19941 17.125 0.875003 16.8006 0.875003 16.4028V8.81959C0.875003 8.42167 1.19944 8.0973 1.59716 8.0973Z" stroke="black" stroke-width="1.08333"/>
<path d="M10.9861 12.4306H16.4027C16.8004 12.4306 17.1248 12.755 17.1248 13.1529V16.4029C17.1248 16.8006 16.8004 17.125 16.4027 17.125H10.9861C10.5881 17.125 10.2638 16.8006 10.2638 16.4029V13.1529C10.2638 12.755 10.5882 12.4306 10.9861 12.4306Z" stroke="black" stroke-width="1.08333"/>
<path d="M10.9861 0.875254H16.4027C16.8004 0.875254 17.1248 1.19966 17.1248 1.59741V9.18063C17.1248 9.57856 16.8004 9.90292 16.4027 9.90292H10.9861C10.5882 9.90292 10.2638 9.57852 10.2638 9.18063V1.59741C10.2638 1.1997 10.5881 0.875254 10.9861 0.875254Z" stroke="black" stroke-width="1.08333"/>
</svg>
