<svg width="18" height="18" viewBox="0 0 18 18" fill="none" xmlns="http://www.w3.org/2000/svg">
<path d="M7.01378 0.333588H1.5972C0.90029 0.333588 0.333374 0.900504 0.333374 1.59741V4.84736C0.333374 5.5444 0.90029 6.11132 1.5972 6.11132H7.01378C7.71082 6.11132 8.27774 5.5444 8.27774 4.84736V1.59741C8.27774 0.900504 7.71082 0.333588 7.01378 0.333588Z" fill="#55BFA9"/>
<path d="M7.01378 7.55563H1.5972C0.90029 7.55563 0.333374 8.12255 0.333374 8.81959V16.4028C0.333374 17.0997 0.90029 17.6666 1.5972 17.6666H7.01378C7.71082 17.6666 8.27774 17.0997 8.27774 16.4028V8.81959C8.27774 8.12255 7.71082 7.55563 7.01378 7.55563Z" fill="#55BFA9"/>
<path d="M16.4026 11.889H10.986C10.289 11.889 9.72205 12.4559 9.72205 13.1529V16.4029C9.72205 17.0998 10.289 17.6667 10.986 17.6667H16.4026C17.0995 17.6667 17.6664 17.0998 17.6664 16.4029V13.1529C17.6664 12.4559 17.0995 11.889 16.4026 11.889Z" fill="#55BFA9"/>
<path d="M16.4026 0.333588H10.986C10.289 0.333588 9.72205 0.900504 9.72205 1.59741V9.18063C9.72205 9.87767 10.289 10.4446 10.986 10.4446H16.4026C17.0995 10.4446 17.6664 9.87767 17.6664 9.18063V1.59741C17.6664 0.900504 17.0995 0.333588 16.4026 0.333588Z" fill="#55BFA9"/>
</svg>
