<svg width="14" height="26" viewBox="0 0 14 26" fill="none" xmlns="http://www.w3.org/2000/svg">
<path d="M8.3061 4.81151C5.58761 7.26625 8.6743 10.7862 11.4559 8.58009C14.173 6.12211 11.0893 2.60493 8.3061 4.81151Z" fill="#55BFA9"/>
<path d="M13.0198 13.3971C12.9952 13.1657 12.9244 12.9415 12.8116 12.738C12.6987 12.5344 12.5461 12.3556 12.3628 12.2122L9.49793 9.95654C9.40084 9.88315 9.27883 9.85078 9.15813 9.86639C9.03743 9.882 8.92767 9.94434 8.85245 10.04C8.77722 10.1357 8.74253 10.257 8.75584 10.378C8.76915 10.499 8.82939 10.6099 8.92361 10.687L11.7881 12.9421C11.873 13.0095 11.9438 13.0931 11.9963 13.188C12.0488 13.2828 12.0821 13.3872 12.0941 13.4949C12.1062 13.6027 12.0968 13.7118 12.0666 13.8159C12.0363 13.9201 11.9857 14.0172 11.9178 14.1017L8.77608 17.9374L8.23311 16.4957L9.9947 14.3784C10.0586 14.3004 10.1065 14.2104 10.1355 14.1138C10.1646 14.0172 10.1742 13.9158 10.164 13.8154C10.1538 13.7151 10.1238 13.6177 10.0758 13.529C10.0278 13.4402 9.96281 13.3618 9.88445 13.2982L7.99448 11.7844C7.86677 11.6828 7.71528 11.6154 7.5543 11.5885C7.39332 11.5617 7.22816 11.5764 7.07441 11.6311C6.92065 11.6858 6.78337 11.7787 6.67551 11.9012C6.56765 12.0237 6.49277 12.1716 6.45793 12.3311C6.1495 13.7265 6.75106 15.2722 7.26824 16.5692L9.96794 23.7385C10.0127 23.8615 10.0327 23.9922 10.0267 24.123C10.0208 24.2538 9.98915 24.3821 9.9335 24.5006C9.87785 24.6191 9.79934 24.7255 9.70248 24.8135C9.60562 24.9016 9.49231 24.9697 9.36906 25.0138C9.24582 25.058 9.11506 25.0774 8.9843 25.0708C8.85355 25.0643 8.72537 25.032 8.60712 24.9758C8.48888 24.9196 8.38291 24.8406 8.29529 24.7433C8.20767 24.6461 8.14013 24.5324 8.09655 24.409L5.45803 16.674C5.42435 16.5801 5.36152 16.4996 5.27873 16.444C5.19595 16.3885 5.09756 16.3609 4.99796 16.3653C4.89837 16.3697 4.8028 16.4059 4.72525 16.4685C4.64771 16.5312 4.59225 16.617 4.56701 16.7135L2.70381 24.3228C2.64851 24.5337 2.51884 24.7176 2.33868 24.8405C2.15852 24.9633 1.94003 25.0169 1.72346 24.9914C1.50689 24.9659 1.30685 24.8629 1.1602 24.7015C1.01355 24.5401 0.930179 24.3312 0.925446 24.1132C0.925115 24.0636 0.929211 24.0141 0.937687 23.9653L3.04452 11.195C3.06264 11.0743 3.03252 10.9514 2.96067 10.8527C2.88882 10.754 2.78101 10.6876 2.66058 10.6678C2.54014 10.6481 2.41676 10.6765 2.31711 10.7469C2.21747 10.8174 2.14957 10.9243 2.12811 11.0445L0.0226429 23.8065C-0.30367 26.0984 2.99497 26.8092 3.60662 24.5442L5.09192 18.4782L7.21644 24.7071C7.34329 25.0693 7.57521 25.3855 7.88258 25.6154C8.18995 25.8452 8.55884 25.9783 8.94216 25.9976C9.32548 26.0168 9.70586 25.9214 10.0347 25.7236C10.3636 25.5257 10.6261 25.2344 10.7886 24.8867C10.8946 24.6562 10.9534 24.407 10.9618 24.1535C10.9701 23.9 10.9277 23.6474 10.8372 23.4105L9.15431 18.9418L12.6364 14.6901C12.7837 14.5113 12.8935 14.3047 12.9594 14.0825C13.0252 13.8604 13.0457 13.6273 13.0198 13.3971ZM7.62701 14.8761C7.31079 14.1286 7.23591 13.301 7.41282 12.5089L9.17038 13.9166L7.85793 15.494L7.62701 14.8761Z" fill="#55BFA9"/>
<path d="M2.52322 11.4899C2.64481 11.5094 2.76917 11.48 2.86913 11.4081C2.96909 11.3361 3.03654 11.2276 3.05674 11.1061L3.38156 9.11771C3.38131 9.00547 3.39414 3.81085 3.38743 3.7054C3.386 3.40714 3.48111 3.11642 3.65855 2.87668C3.83599 2.63695 4.08625 2.46106 4.37192 2.37531L9.03879 0.96669C9.15444 0.93073 9.27624 0.918899 9.39666 0.931931C9.51707 0.944964 9.63352 0.982582 9.7388 1.04245C9.88749 1.1295 10.0082 1.25721 10.0868 1.41055C10.1654 1.56389 10.1985 1.73649 10.1823 1.90802C10.1661 2.07955 10.1012 2.24289 9.9953 2.3788C9.8894 2.51471 9.74689 2.61755 9.58452 2.6752L6.2197 3.81255C5.9009 3.91956 5.62814 4.13213 5.44651 4.41515C5.26487 4.69816 5.18522 5.03467 5.22073 5.36907C5.3033 6.37305 5.43719 7.53754 6.16351 8.29339C6.24513 8.38362 6.35888 8.43824 6.48034 8.44553C6.60179 8.45281 6.72126 8.41217 6.81308 8.33234C6.90489 8.25251 6.96175 8.13985 6.97142 8.01857C6.98109 7.89728 6.94281 7.77704 6.8648 7.68366C6.27372 7.08622 6.22567 6.05904 6.14443 5.26698C6.13137 5.14356 6.16091 5.01938 6.22816 4.91507C6.29541 4.81076 6.39632 4.73259 6.51413 4.69355L9.88578 3.55394C10.339 3.39949 10.7134 3.07319 10.9283 2.64533C11.1432 2.21748 11.1815 1.72232 11.0348 1.26653C10.8882 0.810744 10.5684 0.430806 10.1442 0.208575C9.72014 -0.0136568 9.22571 -0.0603954 8.76747 0.0784282L4.10288 1.48612C3.62589 1.6289 3.20793 1.92224 2.9115 2.32228C2.61507 2.72232 2.4561 3.20757 2.45835 3.70546V9.0052L2.13943 10.9564C2.1197 11.078 2.14903 11.2025 2.22098 11.3026C2.29294 11.4026 2.40164 11.47 2.52322 11.4899Z" fill="#55BFA9"/>
</svg>
