<svg width="27" height="27" viewBox="0 0 27 27" fill="none" xmlns="http://www.w3.org/2000/svg">
<path d="M7.9256 14.8514C11.7506 14.8514 14.8513 11.7507 14.8513 7.92572C14.8513 4.10075 11.7506 1 7.9256 1C4.10063 1 0.999878 4.10075 0.999878 7.92572C0.999878 11.7507 4.10063 14.8514 7.9256 14.8514Z" stroke="#252525" stroke-width="0.909091" stroke-linecap="round" stroke-linejoin="round"/>
<path d="M1.69299 10.9435C3.82335 10.7335 5.89346 10.1159 7.79055 9.12417C10.1768 8.02891 12.2269 6.31567 13.7285 4.16187" stroke="#252525" stroke-width="0.909091" stroke-linecap="round" stroke-linejoin="round"/>
<path d="M10.7339 1.59311C9.35634 2.43824 8.29691 3.71516 7.72059 5.22504C6.55429 7.93901 6.32147 8.97227 4.13189 8.55763C2.26826 8.09311 1.53101 5.26273 1.53101 5.26273" stroke="#252525" stroke-width="0.909091" stroke-linecap="round" stroke-linejoin="round"/>
<path d="M14.7994 8.78381C14.1789 9.5553 13.3552 10.1381 12.4213 10.4666C11.4873 10.7951 10.4802 10.8562 9.51334 10.643C5.81157 10.1042 5.30603 12.6608 5.41135 13.4767C5.44264 13.833 5.54679 14.179 5.71733 14.4933" stroke="#252525" stroke-width="0.909091" stroke-linecap="round" stroke-linejoin="round"/>
<path d="M11.2685 13.9911C9.28732 13.9424 6.98023 11.9668 5.66759 9.00223C4.29397 5.89802 4.44808 2.72729 5.90816 1.306" stroke="#252525" stroke-width="0.909091" stroke-linecap="round" stroke-linejoin="round"/>
<path d="M22.427 24.1996L18.8627 20.6807V17.9146" stroke="#252525" stroke-width="0.909091" stroke-linecap="round" stroke-linejoin="round"/>
<path d="M22.429 24.1962L20.7394 25.9867L20.7261 26" stroke="#252525" stroke-width="0.909091" stroke-linecap="round" stroke-linejoin="round"/>
<path d="M18.8601 20.6841L13.8036 25.9867" stroke="#252525" stroke-width="0.909091" stroke-linecap="round" stroke-linejoin="round"/>
<path d="M12.0732 24.2106L15.6364 20.6729V17.9157" stroke="#252525" stroke-width="0.909091" stroke-linecap="round" stroke-linejoin="round"/>
<path d="M13.7495 25.9867L12.0732 24.2095" stroke="#252525" stroke-width="0.909091" stroke-linecap="round" stroke-linejoin="round"/>
<path d="M20.7261 26L20.7128 25.9867L15.6418 20.6841" stroke="#252525" stroke-width="0.909091" stroke-linecap="round" stroke-linejoin="round"/>
<path d="M25.0797 17.9124C23.3496 20.2624 22.3532 23.0717 22.2161 25.9867" stroke="#252525" stroke-width="0.909091" stroke-linecap="round" stroke-linejoin="round"/>
<path d="M17.5077 25.9867L25.0798 17.9124" stroke="#252525" stroke-width="0.909091" stroke-linecap="round" stroke-linejoin="round"/>
<path d="M8.99021 17.9191C8.85044 17.9191 8.71204 17.8915 8.58291 17.8381C8.45379 17.7846 8.33646 17.7062 8.23763 17.6073C8.1388 17.5085 8.0604 17.3912 8.00692 17.2621C7.95343 17.1329 7.9259 16.9945 7.9259 16.8548C7.9259 16.715 7.95343 16.5766 8.00692 16.4475C8.0604 16.3184 8.1388 16.201 8.23763 16.1022C8.33646 16.0034 8.45379 15.925 8.58291 15.8715C8.71204 15.818 8.85044 15.7905 8.99021 15.7905H25.4348C25.5745 15.7905 25.7129 15.818 25.8421 15.8715C25.9712 15.925 26.0885 16.0034 26.1873 16.1022C26.2862 16.201 26.3646 16.3184 26.4181 16.4475C26.4715 16.5766 26.4991 16.715 26.4991 16.8548C26.4991 16.9945 26.4715 17.1329 26.4181 17.2621C26.3646 17.3912 26.2862 17.5085 26.1873 17.6073C26.0885 17.7062 25.9712 17.7846 25.8421 17.8381C25.7129 17.8915 25.5745 17.9191 25.4348 17.9191H8.99021Z" stroke="#252525" stroke-width="0.909091" stroke-linecap="round" stroke-linejoin="round"/>
<path d="M9.34607 17.9124C11.0756 20.2627 12.0715 23.0719 12.2086 25.9867" stroke="#252525" stroke-width="0.909091" stroke-linecap="round" stroke-linejoin="round"/>
<path d="M16.917 25.9867L9.34607 17.9124" stroke="#252525" stroke-width="0.909091" stroke-linecap="round" stroke-linejoin="round"/>
</svg>
