<svg width="27" height="27" viewBox="0 0 27 27" fill="none" xmlns="http://www.w3.org/2000/svg">
<path d="M7.92565 14.8514C11.7506 14.8514 14.8514 11.7507 14.8514 7.92572C14.8514 4.10075 11.7506 1 7.92565 1C4.10068 1 0.999924 4.10075 0.999924 7.92572C0.999924 11.7507 4.10068 14.8514 7.92565 14.8514Z" fill="#55BFA9" stroke="#E2F3F0" stroke-width="0.5" stroke-linecap="round" stroke-linejoin="round"/>
<path d="M1.69302 10.9435C3.82338 10.7335 5.89349 10.1159 7.79059 9.12417C10.1768 8.02891 12.2269 6.31567 13.7285 4.16187" fill="#55BFA9"/>
<path d="M1.69302 10.9435C3.82338 10.7335 5.89349 10.1159 7.79059 9.12417C10.1768 8.02891 12.2269 6.31567 13.7285 4.16187" stroke="#E2F3F0" stroke-width="0.5" stroke-linecap="round" stroke-linejoin="round"/>
<path d="M10.7339 1.59311C9.35636 2.43824 8.29694 3.71516 7.72061 5.22504C6.55431 7.93901 6.3215 8.97227 4.13192 8.55763C2.26828 8.09311 1.53103 5.26273 1.53103 5.26273" fill="#55BFA9"/>
<path d="M10.7339 1.59311C9.35636 2.43824 8.29694 3.71516 7.72061 5.22504C6.55431 7.93901 6.3215 8.97227 4.13192 8.55763C2.26828 8.09311 1.53103 5.26273 1.53103 5.26273" stroke="#E2F3F0" stroke-width="0.5" stroke-linecap="round" stroke-linejoin="round"/>
<path d="M14.7995 8.78381C14.179 9.5553 13.3553 10.1381 12.4214 10.4666C11.4874 10.7951 10.4802 10.8562 9.51343 10.643C5.81165 10.1042 5.30611 12.6608 5.41143 13.4767C5.44272 13.833 5.54687 14.179 5.71742 14.4933" fill="#55BFA9"/>
<path d="M14.7995 8.78381C14.179 9.5553 13.3553 10.1381 12.4214 10.4666C11.4874 10.7951 10.4802 10.8562 9.51343 10.643C5.81165 10.1042 5.30611 12.6608 5.41143 13.4767C5.44272 13.833 5.54687 14.179 5.71742 14.4933" stroke="#E2F3F0" stroke-width="0.5" stroke-linecap="round" stroke-linejoin="round"/>
<path d="M11.2685 13.9911C9.28734 13.9424 6.98025 11.9668 5.66761 9.00223C4.294 5.89802 4.4481 2.72729 5.90819 1.306" fill="#55BFA9"/>
<path d="M11.2685 13.9911C9.28734 13.9424 6.98025 11.9668 5.66761 9.00223C4.294 5.89802 4.4481 2.72729 5.90819 1.306" stroke="#E2F3F0" stroke-width="0.5" stroke-linecap="round" stroke-linejoin="round"/>
<path d="M22.427 24.1996L18.8627 20.6807V17.9146" stroke="#55BFA9" stroke-width="0.909091" stroke-linecap="round" stroke-linejoin="round"/>
<path d="M22.429 24.1962L20.7394 25.9867L20.7261 26" fill="#55BFA9"/>
<path d="M22.429 24.1962L20.7394 25.9867L20.7261 26" stroke="#55BFA9" stroke-width="0.909091" stroke-linecap="round" stroke-linejoin="round"/>
<path d="M18.8602 20.6841L13.8037 25.9867L18.8602 20.6841Z" fill="#55BFA9"/>
<path d="M18.8602 20.6841L13.8037 25.9867" stroke="#55BFA9" stroke-width="0.909091" stroke-linecap="round" stroke-linejoin="round"/>
<path d="M12.0733 24.2106L15.6365 20.6729V17.9157" stroke="#55BFA9" stroke-width="0.909091" stroke-linecap="round" stroke-linejoin="round"/>
<path d="M13.7496 25.9867L12.0733 24.2095L13.7496 25.9867Z" fill="#55BFA9"/>
<path d="M13.7496 25.9867L12.0733 24.2095" stroke="#55BFA9" stroke-width="0.909091" stroke-linecap="round" stroke-linejoin="round"/>
<path d="M20.7261 26L20.7128 25.9867L15.6418 20.6841" fill="#55BFA9"/>
<path d="M20.7261 26L20.7128 25.9867L15.6418 20.6841" stroke="#55BFA9" stroke-width="0.909091" stroke-linecap="round" stroke-linejoin="round"/>
<path d="M25.0797 17.9124C23.3496 20.2624 22.3533 23.0717 22.2161 25.9867L25.0797 17.9124Z" fill="#55BFA9"/>
<path d="M25.0797 17.9124C23.3496 20.2624 22.3533 23.0717 22.2161 25.9867" stroke="#55BFA9" stroke-width="0.909091" stroke-linecap="round" stroke-linejoin="round"/>
<path d="M17.5077 25.9867L25.0798 17.9124L17.5077 25.9867Z" fill="#55BFA9"/>
<path d="M17.5077 25.9867L25.0798 17.9124" stroke="#55BFA9" stroke-width="0.909091" stroke-linecap="round" stroke-linejoin="round"/>
<path d="M8.99029 17.9191C8.85052 17.9191 8.71213 17.8915 8.583 17.8381C8.45387 17.7846 8.33654 17.7062 8.23771 17.6073C8.13888 17.5085 8.06049 17.3912 8.007 17.2621C7.95352 17.1329 7.92599 16.9945 7.92599 16.8548C7.92599 16.715 7.95352 16.5766 8.007 16.4475C8.06049 16.3184 8.13888 16.201 8.23771 16.1022C8.33654 16.0034 8.45387 15.925 8.583 15.8715C8.71213 15.818 8.85052 15.7905 8.99029 15.7905H25.4349C25.5746 15.7905 25.713 15.818 25.8421 15.8715C25.9713 15.925 26.0886 16.0034 26.1874 16.1022C26.2863 16.201 26.3647 16.3184 26.4181 16.4475C26.4716 16.5766 26.4992 16.715 26.4992 16.8548C26.4992 16.9945 26.4716 17.1329 26.4181 17.2621C26.3647 17.3912 26.2863 17.5085 26.1874 17.6073C26.0886 17.7062 25.9713 17.7846 25.8421 17.8381C25.713 17.8915 25.5746 17.9191 25.4349 17.9191H8.99029Z" fill="#55BFA9" stroke="#55BFA9" stroke-width="0.909091" stroke-linecap="round" stroke-linejoin="round"/>
<path d="M9.34607 17.9124C11.0756 20.2627 12.0715 23.0719 12.2086 25.9867L9.34607 17.9124Z" fill="#55BFA9"/>
<path d="M9.34607 17.9124C11.0756 20.2627 12.0715 23.0719 12.2086 25.9867" stroke="#55BFA9" stroke-width="0.909091" stroke-linecap="round" stroke-linejoin="round"/>
<path d="M16.917 25.9867L9.34607 17.9124L16.917 25.9867Z" fill="#55BFA9"/>
<path d="M16.917 25.9867L9.34607 17.9124" stroke="#55BFA9" stroke-width="0.909091" stroke-linecap="round" stroke-linejoin="round"/>
</svg>
