<svg width="26" height="26" viewBox="0 0 26 26" fill="none" xmlns="http://www.w3.org/2000/svg">
<path d="M16.51 24.1258H16.3692C11.5592 24.1258 9.24083 22.23 8.84 17.9833C8.79667 17.5391 9.12167 17.1383 9.57667 17.095C10.0208 17.0516 10.4217 17.3875 10.465 17.8316C10.7792 21.2333 12.3825 22.5008 16.38 22.5008H16.5208C20.93 22.5008 22.49 20.9408 22.49 16.5316V9.46831C22.49 5.05914 20.93 3.49915 16.5208 3.49915H16.38C12.3608 3.49915 10.7575 4.78831 10.465 8.25498C10.4108 8.69914 10.0425 9.03498 9.57667 8.99165C9.12167 8.95915 8.79666 8.55831 8.82916 8.11414C9.1975 3.80248 11.5267 1.87415 16.3692 1.87415H16.51C21.8292 1.87415 24.1042 4.14915 24.1042 9.46831V16.5316C24.1042 21.8508 21.8292 24.1258 16.51 24.1258Z" fill="#252525"/>
<path d="M16.12 13.8125H2.16666C1.7225 13.8125 1.35416 13.4442 1.35416 13C1.35416 12.5558 1.7225 12.1875 2.16666 12.1875H16.12C16.5642 12.1875 16.9325 12.5558 16.9325 13C16.9325 13.4442 16.575 13.8125 16.12 13.8125Z" fill="#252525"/>
<path d="M13.7042 17.4417C13.4983 17.4417 13.2925 17.3658 13.13 17.2033C12.8158 16.8892 12.8158 16.3692 13.13 16.055L16.185 13L13.13 9.94499C12.8158 9.63083 12.8158 9.11083 13.13 8.79666C13.4442 8.48249 13.9642 8.48249 14.2783 8.79666L17.9075 12.4258C18.2217 12.74 18.2217 13.26 17.9075 13.5742L14.2783 17.2033C14.1158 17.3658 13.91 17.4417 13.7042 17.4417Z" fill="#252525"/>
</svg>
