<svg width="22" height="22" viewBox="0 0 22 22" fill="none" xmlns="http://www.w3.org/2000/svg">
<path d="M11 14.4375C9.1025 14.4375 7.5625 12.8975 7.5625 11C7.5625 9.1025 9.1025 7.5625 11 7.5625C12.8975 7.5625 14.4375 9.1025 14.4375 11C14.4375 12.8975 12.8975 14.4375 11 14.4375ZM11 8.9375C9.86333 8.9375 8.9375 9.86333 8.9375 11C8.9375 12.1367 9.86333 13.0625 11 13.0625C12.1367 13.0625 13.0625 12.1367 13.0625 11C13.0625 9.86333 12.1367 8.9375 11 8.9375Z" fill="#282C31"/>
<path d="M13.9425 20.3408C13.75 20.3408 13.5575 20.3133 13.365 20.2675C12.7967 20.1117 12.32 19.7542 12.0175 19.25L11.9075 19.0667C11.3667 18.1317 10.6242 18.1317 10.0834 19.0667L9.98254 19.2408C9.68004 19.7542 9.20337 20.1208 8.63504 20.2675C8.05754 20.4233 7.46171 20.3408 6.95754 20.0383L5.38087 19.1308C4.82171 18.81 4.41837 18.2875 4.24421 17.655C4.07921 17.0225 4.16171 16.3717 4.48254 15.8125C4.74837 15.345 4.82171 14.9233 4.66587 14.6575C4.51004 14.3917 4.11587 14.2358 3.57504 14.2358C2.23671 14.2358 1.14587 13.145 1.14587 11.8067V10.1933C1.14587 8.855 2.23671 7.76417 3.57504 7.76417C4.11587 7.76417 4.51004 7.60833 4.66587 7.3425C4.82171 7.07667 4.75754 6.655 4.48254 6.1875C4.16171 5.62833 4.07921 4.96833 4.24421 4.345C4.40921 3.7125 4.81254 3.19 5.38087 2.86916L6.96671 1.96166C8.00254 1.3475 9.36837 1.705 9.99171 2.75916L10.1017 2.9425C10.6425 3.8775 11.385 3.8775 11.9259 2.9425L12.0267 2.76833C12.65 1.705 14.0159 1.3475 15.0609 1.97083L16.6375 2.87833C17.1967 3.19916 17.6 3.72166 17.7742 4.35416C17.9392 4.98666 17.8567 5.6375 17.5359 6.19667C17.27 6.66417 17.1967 7.08583 17.3525 7.35167C17.5084 7.6175 17.9025 7.77333 18.4434 7.77333C19.7817 7.77333 20.8725 8.86416 20.8725 10.2025V11.8158C20.8725 13.1542 19.7817 14.245 18.4434 14.245C17.9025 14.245 17.5084 14.4008 17.3525 14.6667C17.1967 14.9325 17.2609 15.3542 17.5359 15.8217C17.8567 16.3808 17.9484 17.0408 17.7742 17.6642C17.6092 18.2967 17.2059 18.8192 16.6375 19.14L15.0517 20.0475C14.7034 20.24 14.3275 20.3408 13.9425 20.3408ZM11 16.9492C11.8159 16.9492 12.5767 17.4625 13.0992 18.37L13.2 18.5442C13.31 18.7367 13.4934 18.8742 13.7134 18.9292C13.9334 18.9842 14.1534 18.9567 14.3367 18.8467L15.9225 17.93C16.1609 17.7925 16.3442 17.5633 16.4175 17.2883C16.4909 17.0133 16.4542 16.7292 16.3167 16.4908C15.7942 15.5925 15.73 14.6667 16.1334 13.9608C16.5367 13.255 17.3709 12.8517 18.4159 12.8517C19.0025 12.8517 19.47 12.3842 19.47 11.7975V10.1842C19.47 9.60666 19.0025 9.13 18.4159 9.13C17.3709 9.13 16.5367 8.72667 16.1334 8.02083C15.73 7.315 15.7942 6.38916 16.3167 5.49083C16.4542 5.2525 16.4909 4.96833 16.4175 4.69333C16.3442 4.41833 16.17 4.19833 15.9317 4.05166L14.3459 3.14416C13.9517 2.90583 13.4292 3.04333 13.1909 3.44666L13.09 3.62083C12.5675 4.52833 11.8067 5.04166 10.9909 5.04166C10.175 5.04166 9.41421 4.52833 8.89171 3.62083L8.79087 3.4375C8.56171 3.0525 8.04837 2.915 7.65421 3.14416L6.06837 4.06083C5.83004 4.19833 5.64671 4.4275 5.57337 4.7025C5.50004 4.9775 5.53671 5.26166 5.67421 5.5C6.19671 6.39833 6.26087 7.32417 5.85754 8.03C5.45421 8.73583 4.62004 9.13916 3.57504 9.13916C2.98837 9.13916 2.52087 9.60666 2.52087 10.1933V11.8067C2.52087 12.3842 2.98837 12.8608 3.57504 12.8608C4.62004 12.8608 5.45421 13.2642 5.85754 13.97C6.26087 14.6758 6.19671 15.6017 5.67421 16.5C5.53671 16.7383 5.50004 17.0225 5.57337 17.2975C5.64671 17.5725 5.82087 17.7925 6.05921 17.9392L7.64504 18.8467C7.83754 18.9658 8.06671 18.9933 8.27754 18.9383C8.49754 18.8833 8.68087 18.7367 8.80004 18.5442L8.90087 18.37C9.42337 17.4717 10.1842 16.9492 11 16.9492Z" fill="#282C31"/>
</svg>
